<svg aria-hidden="true" style="width:0;height:0;position:absolute;overflow:hidden" xmlns="http://www.w3.org/2000/svg"><defs><symbol id="cross" viewBox="0 0 32 32"><path d="M18.148 16 30.78 3.368a1.521 1.521 0 0 0-.08-2.069 1.525 1.525 0 0 0-2.068-.08L16 13.851 3.368 1.203a1.53 1.53 0 0 0-2.164 2.164l12.648 12.632L1.204 28.631a1.535 1.535 0 0 0-.532 1.099 1.522 1.522 0 0 0 .967 1.478 1.539 1.539 0 0 0 1.22-.047c.189-.092.357-.221.494-.38l12.648-12.632 12.632 12.632a1.52 1.52 0 0 0 2.068-.08 1.52 1.52 0 0 0 .08-2.069L18.149 16z"/></symbol></defs></svg>