<svg aria-hidden="true" style="position: absolute; width: 0; height: 0; overflow: hidden;" version="1.1" xmlns="http://www.w3.org/2000/svg" xmlns:xlink="http://www.w3.org/1999/xlink">
<defs>
<symbol id="burger_icon" viewBox="0 0 32 32">
<path  d="M26.733 14h-21.467c-0.7 0-1.267 0.425-1.267 0.95v0.1c0 0.525 0.567 0.95 1.267 0.95h21.467c0.7 0 1.267-0.425 1.267-0.95v-0.1c0-0.525-0.567-0.95-1.267-0.95z"></path>
<path  d="M26.733 20h-21.467c-0.7 0-1.267 0.425-1.267 0.95v0.1c0 0.525 0.567 0.95 1.267 0.95h21.467c0.7 0 1.267-0.425 1.267-0.95v-0.1c0-0.525-0.567-0.95-1.267-0.95z"></path>
<path  d="M26.733 8h-21.467c-0.7 0-1.267 0.425-1.267 0.95v0.1c0 0.525 0.567 0.95 1.267 0.95h21.467c0.7 0 1.267-0.425 1.267-0.95v-0.1c0-0.525-0.567-0.95-1.267-0.95z"></path>
</symbol>
</defs>
</svg>
