<svg aria-hidden="true" style="position:absolute;width:0;height:0;overflow:hidden" xmlns="http://www.w3.org/2000/svg">
  <defs>
    <symbol id="products-btn-icon" viewBox="0 0 82 32">
      <path
        d="M81.414 17.414a2 2 0 0 0 0-2.828L68.686 1.858a2 2 0 1 0-2.828 2.828L77.172 16 65.858 27.314a2 2 0 1 0 2.828 2.828l12.728-12.728zM0 18h80v-4H0v4z" />
    </symbol>

    <symbol id="icon-ep_arrow-right-bold" viewBox="0 0 32 32">
      <path 
        d="M10.587 3.272c-0.361 0.362-0.585 0.861-0.585 1.413s0.223 1.051 0.585 1.413l9.899 9.901-9.899 9.899c-0.348 0.359-0.562 0.85-0.562 1.39 0 1.105 0.895 2 2 2 0.54 0 1.030-0.214 1.389-0.561l11.314-11.314c0.361-0.362 0.585-0.861 0.585-1.413s-0.224-1.052-0.585-1.413l-11.315-11.315c-0.362-0.361-0.861-0.585-1.413-0.585s-1.052 0.224-1.413 0.585l0-0z"></path>
    </symbol>
  </defs>
</svg>