<svg xmlns="http://www.w3.org/2000/svg" aria-hidden="true" style="position:absolute;width:0;height:0;overflow:hidden">
  <defs>
    <symbol id="products-btn-icon" viewBox="0 0 82 32">
      <path
        d="M81.414 17.414a2 2 0 0 0 0-2.828L68.686 1.858a2 2 0 1 0-2.828 2.828L77.172 16 65.858 27.314a2 2 0 1 0 2.828 2.828l12.728-12.728zM0 18h80v-4H0v4z" />
    </symbol>
    <symbol id="arrow-right" viewBox="0 0 32 32">
      <path
        d="M8.51 3.254C8.184 3.63 8 4.14 8 4.671s.183 1.041.51 1.417l8.62 9.924-8.62 9.924c-.317.378-.493.884-.489 1.41s.187 1.029.51 1.4.76.583 1.216.587c.457.005.896-.198 1.225-.563l9.851-11.341c.326-.376.51-.886.51-1.417s-.183-1.041-.51-1.417L10.972 3.254c-.327-.376-.769-.587-1.231-.587s-.905.211-1.231.587z" />
    </symbol>
    <symbol id="icon-ep_arrow-right-bold" viewBox="0 0 32 32">
      <path
        d="M10.587 3.272c-0.361 0.362-0.585 0.861-0.585 1.413s0.223 1.051 0.585 1.413l9.899 9.901-9.899 9.899c-0.348 0.359-0.562 0.85-0.562 1.39 0 1.105 0.895 2 2 2 0.54 0 1.030-0.214 1.389-0.561l11.314-11.314c0.361-0.362 0.585-0.861 0.585-1.413s-0.224-1.052-0.585-1.413l-11.315-11.315c-0.362-0.361-0.861-0.585-1.413-0.585s-1.052 0.224-1.413 0.585l0-0z">
      </path>
      <symbol id="github" viewBox="0 0 32 32">
        <path
          d="M16 0c-8.788 0-16 7.212-16 16 0 7.499 5.262 14.312 12.25 16v-5.293c-0.692 0.152-1.33 0.156-2.034-0.052-0.946-0.279-1.714-0.909-2.284-1.869-0.364-0.613-1.008-1.278-1.68-1.23l-0.165-1.868c1.453-0.124 2.711 0.886 3.457 2.14 0.332 0.558 0.713 0.884 1.203 1.029 0.473 0.14 0.982 0.072 1.574-0.137 0.149-1.186 0.692-1.63 1.102-2.255v-0.001c-4.167-0.622-5.828-2.832-6.488-4.578-0.874-2.317-0.405-5.212 1.14-7.041 0.030-0.036 0.084-0.129 0.063-0.194-0.708-2.139 0.155-3.909 0.187-4.097 0.817 0.242 0.95-0.243 3.551 1.337l0.449 0.27c0.188 0.112 0.129 0.048 0.317 0.034 1.086-0.295 2.23-0.458 3.358-0.472 1.136 0.015 2.273 0.178 3.404 0.484l0.145 0.015c-0.013-0.002 0.040-0.009 0.127-0.062 3.248-1.968 3.132-1.324 4.003-1.608 0.032 0.188 0.883 1.987 0.182 4.099-0.095 0.291 2.816 2.956 1.203 7.235-0.659 1.746-2.32 3.957-6.487 4.578v0.001c0.534 0.814 1.176 1.247 1.173 2.927v6.608c6.988-1.688 12.25-8.501 12.25-16 0-8.788-7.212-16-16-16v0z">
        </path>
      </symbol>
      <symbol id="telegram" viewBox="0 0 44 32">
        <path
          d="M17.344 21.048l-0.675 8.86c0.966 0 1.384-0.387 1.885-0.852l4.527-4.038 9.381 6.412c1.72 0.895 2.933 0.424 3.397-1.477l6.157-26.929 0.002-0.002c0.546-2.374-0.92-3.302-2.596-2.72l-36.194 12.933c-2.47 0.895-2.433 2.18-0.42 2.762l9.253 2.686 21.494-12.552c1.011-0.625 1.931-0.279 1.175 0.346l-17.386 14.57z">
        </path>
      </symbol>
      <symbol id="facebook" viewBox="0 0 16 32">
        <path
          d="M14.143 15.972h-4.034v14.865h-6.112v-14.865h-2.907v-5.224h2.907v-3.381c0-2.418 1.142-6.203 6.166-6.203l4.527 0.019v5.071h-3.285c-0.539 0-1.296 0.271-1.296 1.424v3.075h4.567l-0.534 5.219z">
        </path>
      </symbol>
      <symbol id="modal-close-icon" viewBox="0 0 32 32">
        <path
          d="M18.088 16l12.282-12.281c0.243-0.283 0.369-0.648 0.355-1.021s-0.169-0.727-0.433-0.99c-0.264-0.264-0.617-0.418-0.99-0.433s-0.737 0.112-1.021 0.355l-12.281 12.281-12.281-12.296c-0.279-0.279-0.657-0.436-1.052-0.436s-0.773 0.157-1.052 0.436c-0.279 0.279-0.436 0.657-0.436 1.052s0.157 0.773 0.436 1.052l12.296 12.281-12.296 12.281c-0.155 0.133-0.281 0.296-0.37 0.48s-0.139 0.384-0.147 0.588c-0.008 0.204 0.026 0.408 0.101 0.598s0.187 0.363 0.332 0.507c0.144 0.145 0.317 0.257 0.507 0.332s0.394 0.109 0.598 0.101c0.204-0.008 0.404-0.058 0.588-0.147s0.347-0.215 0.48-0.37l12.296-12.282 12.281 12.282c0.283 0.243 0.648 0.369 1.021 0.355s0.727-0.169 0.99-0.433c0.264-0.264 0.418-0.617 0.433-0.99s-0.112-0.737-0.355-1.021l-12.282-12.281z">
        </path>
      </symbol>
      d="M10.587 3.272c-.361.362-.585.861-.585 1.413s.223 1.051.585 1.413l9.899 9.901-9.899 9.899a2 2 0 0 0 2.827
      2.829l11.314-11.314c.361-.362.585-.861.585-1.413s-.224-1.052-.585-1.413L13.413
      3.272c-.362-.361-.861-.585-1.413-.585s-1.052.224-1.413.585z" />
    </symbol>
    <symbol id="github" viewBox="0 0 32 32">
      <path
        d="M16 0C7.212 0 0 7.212 0 16c0 7.499 5.262 14.312 12.25 16v-5.293c-.692.152-1.33.156-2.034-.052-.946-.279-1.714-.909-2.284-1.869-.364-.613-1.008-1.278-1.68-1.23l-.165-1.868c1.453-.124 2.711.886 3.457 2.14.332.558.713.884 1.203 1.029.473.14.982.072 1.574-.137.149-1.186.692-1.63 1.102-2.255v-.001c-4.167-.622-5.828-2.832-6.488-4.578-.874-2.317-.405-5.212 1.14-7.041.03-.036.084-.129.063-.194-.708-2.139.155-3.909.187-4.097.817.242.95-.243 3.551 1.337l.449.27c.188.112.129.048.317.034A13.544 13.544 0 0 1 16 7.723c1.136.015 2.273.178 3.404.484l.145.015c-.013-.002.04-.009.127-.062 3.248-1.968 3.132-1.324 4.003-1.608.032.188.883 1.987.182 4.099-.095.291 2.816 2.956 1.203 7.235-.659 1.746-2.32 3.957-6.487 4.578v.001c.534.814 1.176 1.247 1.173 2.927V32C26.738 30.312 32 23.499 32 16c0-8.788-7.212-16-16-16z" />
    </symbol>
    <symbol id="telegram" viewBox="0 0 44 32">
      <path
        d="m17.344 21.048-.675 8.86c.966 0 1.384-.387 1.885-.852l4.527-4.038 9.381 6.412c1.72.895 2.933.424 3.397-1.477l6.157-26.929.002-.002c.546-2.374-.92-3.302-2.596-2.72L3.228 13.235c-2.47.895-2.433 2.18-.42 2.762l9.253 2.686L33.555 6.131c1.011-.625 1.931-.279 1.175.346l-17.386 14.57z" />
    </symbol>
    <symbol id="facebook" viewBox="0 0 16 32">
      <path
        d="M14.143 15.972h-4.034v14.865H3.997V15.972H1.09v-5.224h2.907V7.367c0-2.418 1.142-6.203 6.166-6.203l4.527.019v5.071h-3.285c-.539 0-1.296.271-1.296 1.424v3.075h4.567l-.534 5.219z" />
    </symbol>
    <symbol id="icon-vector" viewBox="0 0 22 32">
      <path
        d="M3.103.727a2.4 2.4 0 0 0 0 3.394l11.88 11.88-11.88 11.88a2.398 2.398 0 0 0 1.705 4.067 2.393 2.393 0 0 0 1.688-.674l13.577-13.577a2.4 2.4 0 0 0 0-3.394L6.496.726a2.4 2.4 0 0 0-3.394 0z" />
    </symbol>
    <!-- <symbol id="icon-modal_close-icon" viewBox="0 0 32 32">
      <path fill="#fcfcfc"
        d="M23.884 6.706 16 14.59 8.116 6.706a.995.995 0 0 0-1.38.031 1 1 0 0 0-.031 1.38l7.88 7.884-7.882 7.882a1.002 1.002 0 0 0-.018 1.427.998.998 0 0 0 1.427-.015l7.886-7.882 7.884 7.884a1 1 0 0 0 1.38-.03 1 1 0 0 0 .03-1.38l-7.884-7.884 7.884-7.886a1.002 1.002 0 0 0 .018-1.427.998.998 0 0 0-1.427.015v.002z"
        style="fill:var(--color1, #fcfcfc)" />
    </symbol> -->
    <symbol id="burger_icon" viewBox="0 0 32 32">
      <path
        d="M26.733 14H5.266c-.7 0-1.267.425-1.267.95v.1c0 .525.567.95 1.267.95h21.467c.7 0 1.267-.425 1.267-.95v-.1c0-.525-.567-.95-1.267-.95zM26.733 20H5.266c-.7 0-1.267.425-1.267.95v.1c0 .525.567.95 1.267.95h21.467c.7 0 1.267-.425 1.267-.95v-.1c0-.525-.567-.95-1.267-.95zM26.733 8H5.266c-.7 0-1.267.425-1.267.95v.1c0 .525.567.95 1.267.95h21.467c.7 0 1.267-.425 1.267-.95v-.1c0-.525-.567-.95-1.267-.95z" />
    </symbol>
  </defs>
</svg>